<?xml version="1.0" encoding="UTF-8" standalone="no" ?>
<svg xmlns="http://www.w3.org/2000/svg" width="9.048px" height="15.960px" viewBox="0 -703 500 882" xmlns:xlink="http://www.w3.org/1999/xlink" style=""><defs><path id="MJX-5-NCM-N-2193" d="M463 38C474 41 480 49 480 61C480 77 472 85 456 85C453 85 451 84 449 83C377 62 319 18 274-48L274 679C274 695 266 703 250 703C234 703 226 695 226 679L226-48C181 18 123 62 51 83C49 84 47 85 44 85C28 85 20 77 20 61C20 49 26 41 37 38C80 25 117 3 149-28C194-73 222-119 233-166C235-175 241-179 250-179C259-179 265-175 267-166C278-119 306-73 351-28C383 3 420 25 463 38Z"/></defs><g stroke="#000000" fill="#000000" stroke-width="0" transform="scale(1,-1)"><g data-mml-node="math" data-latex="\downarrow " data-semantic-structure="0"><g data-mml-node="mo" data-latex="\downarrow " data-semantic-type="relation" data-semantic-role="arrow" data-semantic-annotation="nemeth:number;depth:1" data-semantic-id="0" data-semantic-attributes="latex:\downarrow " aria-level="0" data-speech-node="true"><use data-c="2193" xmlns:xlink="http://www.w3.org/1999/xlink" xlink:href="#MJX-5-NCM-N-2193"/></g></g></g></svg>