<?xml version="1.0" encoding="UTF-8" standalone="no" ?>
<svg xmlns="http://www.w3.org/2000/svg" width="58.392px" height="16.272px" viewBox="0 -694 3226 899" xmlns:xlink="http://www.w3.org/1999/xlink" style=""><defs><path id="MJX-35-NCM-N-48" d="M566 3C640 3 690 2 716 0L716 39L688 39C653 39 632 41 625 46C618 51 614 63 614 81L614 602C614 620 618 631 625 636C632 641 653 644 688 644L716 644L716 683C690 681 640 680 567 680C492 680 442 681 417 683L417 644L444 644C479 644 500 641 507 636C514 631 518 620 518 602L518 375L231 375L231 602C231 620 235 631 242 636C249 641 270 644 305 644L332 644L332 683C307 681 257 680 183 680C109 680 59 681 33 683L33 644L61 644C96 644 117 641 124 636C131 631 135 620 135 602L135 81C135 63 131 51 124 46C117 41 96 39 61 39L33 39L33 0C59 2 109 3 182 3C257 3 307 2 332 0L332 39L305 39C270 39 249 41 242 46C235 51 231 63 231 81L231 336L518 336L518 81C518 63 514 51 507 46C500 41 479 39 444 39L417 39L417 0C442 2 492 3 566 3Z"/><path id="MJX-35-NCM-N-79" d="M113-205C168-205 212-167 243-90L416 332C433 372 463 392 508 392L508 431C475 428 449 427 430 428L341 431L341 393C372 392 387 379 387 354C387 348 385 341 381 332L286 98L180 354C177 362 175 368 174 371C174 385 193 392 230 392L230 431L118 428C94 427 61 428 19 431L19 392C72 392 85 394 99 360L246 1L222-55C195-119 176-175 113-175C99-175 87-171 76-164C99-159 110-144 110-120C110-90 95-75 64-75C34-75 19-90 19-121C19-170 64-205 113-205Z"/><path id="MJX-35-NCM-N-70" d="M298-13C360-13 413 9 456 54C499 99 521 152 521 215C521 276 501 328 462 372C421 419 371 442 311 442C260 442 216 422 178 383L178 442L28 431L28 393C65 393 87 391 94 386C101 381 105 368 105 347L105-115C105-134 101-146 94-150C87-154 65-155 28-155L28-194L142-191L257-194L257-155C220-155 199-154 192-150C185-146 181-134 181-115L181 44C203 13 246-13 298-13M304 409C345 409 377 386 402 340C421 301 431 260 431 215C431 168 420 125 398 86C372 39 337 16 294 16C252 16 219 36 194 75C185 88 181 101 181 114L181 333C210 384 251 409 304 409Z"/><path id="MJX-35-NCM-N-65" d="M415 251C415 366 348 448 236 448C176 448 126 425 85 378C47 334 28 281 28 220C28 157 49 104 91 58C133 12 185-11 247-11C304-11 348 9 378 48C403 81 415 105 415 121C415 131 409 136 398 136C390 136 385 131 382 120C360 54 317 21 253 21C208 21 173 42 146 85C127 116 118 163 117 227L387 227C409 227 415 229 415 251M326 349C337 316 342 284 342 255L118 255C121 321 138 366 168 389C193 409 215 419 236 419C281 419 311 396 326 349Z"/><path id="MJX-35-NCM-N-72" d="M364 378C364 417 327 442 288 442C237 442 198 412 172 351L172 442L28 431L28 393C63 393 84 390 92 384C100 378 104 365 104 342L104 79C104 60 101 48 94 44C87 40 65 38 28 38L28 0L143 3C185 4 228 3 271 0L271 38L247 38C214 38 193 41 186 46C179 51 176 63 176 81L176 232C176 275 184 314 199 347C219 390 248 412 287 413C277 403 272 391 272 377C272 346 287 331 318 331C345 331 364 352 364 378Z"/><path id="MJX-35-NCM-N-62" d="M298-11C360-11 413 11 456 56C499 101 521 154 521 217C521 278 501 332 460 377C419 422 369 445 308 445C259 445 215 426 178 387L178 694L28 683L28 645C64 645 86 642 94 636C102 630 105 616 105 593L105 0L136 0L169 58C201 12 244-11 298-11M294 19C253 19 219 38 194 77C185 90 181 104 181 117L181 320C181 333 184 344 191 354C220 395 257 415 304 415C345 415 378 395 404 354C422 324 431 279 431 218C431 110 393 19 294 19Z"/></defs><g stroke="#000000" fill="#000000" stroke-width="0" transform="scale(1,-1)"><g data-mml-node="math" data-latex="\text{Hyperb}" data-semantic-structure="0"><g data-mml-node="mtext" data-latex="\text{Hyperb}" data-semantic-type="text" data-semantic-role="unknown" data-semantic-font="normal" data-semantic-annotation="clearspeak:unit;nemeth:number;depth:1" data-semantic-id="0" data-semantic-attributes="latex:\text{Hyperb}" aria-level="0" data-speech-node="true"><use data-c="48" xmlns:xlink="http://www.w3.org/1999/xlink" xlink:href="#MJX-35-NCM-N-48"/><use data-c="79" xmlns:xlink="http://www.w3.org/1999/xlink" xlink:href="#MJX-35-NCM-N-79" transform="translate(750,0)"/><use data-c="70" xmlns:xlink="http://www.w3.org/1999/xlink" xlink:href="#MJX-35-NCM-N-70" transform="translate(1278,0)"/><use data-c="65" xmlns:xlink="http://www.w3.org/1999/xlink" xlink:href="#MJX-35-NCM-N-65" transform="translate(1834,0)"/><use data-c="72" xmlns:xlink="http://www.w3.org/1999/xlink" xlink:href="#MJX-35-NCM-N-72" transform="translate(2278,0)"/><use data-c="62" xmlns:xlink="http://www.w3.org/1999/xlink" xlink:href="#MJX-35-NCM-N-62" transform="translate(2670,0)"/></g></g></g></svg>