<?xml version="1.0" encoding="UTF-8" standalone="no" ?>
<svg xmlns="http://www.w3.org/2000/svg" width="26.152px" height="11.328px" viewBox="0 -615 1445 626" xmlns:xlink="http://www.w3.org/1999/xlink" style=""><defs><path id="MJX-25-NCM-N-74" d="M332 126L332 186L300 186L300 128C300 78 282 22 238 22C197 22 177 56 177 124L177 395L316 395L316 433L177 433L177 615L145 615C144 582 141 553 134 527C117 461 78 427 19 424L19 395L102 395L102 126C102 67 120 29 155 10C182-4 207-11 232-11C298-11 332 55 332 126Z"/><path id="MJX-25-NCM-N-61" d="M483 91L483 150L451 150L451 91C451 52 440 32 419 32C399 32 387 57 387 77L387 274C387 309 383 335 376 353C352 412 283 448 213 448C136 448 60 405 60 333C60 300 77 283 110 283C143 283 159 299 159 332C159 361 144 378 113 381C135 406 168 419 211 419C273 419 311 362 311 297L311 264C233 259 174 247 133 228C66 197 32 154 32 97C32 71 42 49 61 32C93 3 137-11 193-11C252-11 294 14 320 65C327 27 355-6 398-6C451-6 483 36 483 91M200 18C154 18 116 52 116 98C116 191 213 231 311 236L311 141C311 74 267 18 200 18Z"/><path id="MJX-25-NCM-N-6E" d="M314 413C359 413 382 378 382 307L382 79C382 60 379 48 372 44C365 40 343 38 306 38L306 0L421 3L535 0L535 38C503 38 482 39 472 42C462 45 458 52 458 64L458 251C458 298 457 331 454 350C444 411 399 442 320 442C257 442 210 412 179 352L179 442L32 431L32 393C68 393 90 390 98 384C106 378 109 365 109 342L109 79C109 60 105 48 98 44C91 40 69 38 32 38L32 0L147 3L261 0L261 38C224 38 203 40 196 44C189 48 185 60 185 79L185 259C185 340 236 413 314 413Z"/></defs><g stroke="#000000" fill="#000000" stroke-width="0" transform="scale(1,-1)"><g data-mml-node="math" data-latex="\tan" data-semantic-structure="0"><g data-mml-node="mi" data-latex="\tan" data-semantic-type="function" data-semantic-role="prefix function" data-semantic-font="normal" data-semantic-annotation="nemeth:number;depth:1" data-semantic-id="0" data-semantic-attributes="latex:\tan" aria-level="0" data-speech-node="true"><use data-c="74" xmlns:xlink="http://www.w3.org/1999/xlink" xlink:href="#MJX-25-NCM-N-74"/><use data-c="61" xmlns:xlink="http://www.w3.org/1999/xlink" xlink:href="#MJX-25-NCM-N-61" transform="translate(389,0)"/><use data-c="6E" xmlns:xlink="http://www.w3.org/1999/xlink" xlink:href="#MJX-25-NCM-N-6E" transform="translate(889,0)"/></g></g></g></svg>